<svg xmlns="http://www.w3.org/2000/svg" width="1922.35" height="99.688" viewBox="0 0 1922.35 99.688">
  <g id="pikotriangles-08" transform="translate(0.289 -0.44)">
    <path id="Path_624" data-name="Path 624" d="M208.894,50.23,249.907.44H167.88Z" transform="translate(-4.954)" fill="#1d1d1d"/>
    <path id="Path_625" data-name="Path 625" d="M124.894,50.23,165.907.44H83.88Z" transform="translate(-2.962)" fill="#1d1d1d"/>
    <path id="Path_626" data-name="Path 626" d="M292.894,50.23,333.907.44H251.88Z" transform="translate(-6.946)" fill="#1d1d1d"/>
    <path id="Path_627" data-name="Path 627" d="M376.744,50.23,417.757.44H335.73Z" transform="translate(-8.935)" fill="#1d1d1d"/>
    <path id="Path_628" data-name="Path 628" d="M460.744,50.23,501.757.44H419.73Z" transform="translate(-10.927)" fill="#1d1d1d"/>
    <path id="Path_629" data-name="Path 629" d="M544.3,50.23l41-49.79H503.29Z" transform="translate(-12.909)" fill="#1d1d1d"/>
    <path id="Path_630" data-name="Path 630" d="M628.3,50.23l41-49.79H587.29Z" transform="translate(-14.901)" fill="#1d1d1d"/>
    <path id="Path_631" data-name="Path 631" d="M711.854,50.23,752.867.44H670.84Z" transform="translate(-16.883)" fill="#1d1d1d"/>
    <path id="Path_632" data-name="Path 632" d="M795.854,50.23,836.867.44H754.84Z" transform="translate(-18.875)" fill="#1d1d1d"/>
    <path id="Path_633" data-name="Path 633" d="M879.414,50.23l41-49.79H838.4Z" transform="translate(-20.857)" fill="#1d1d1d"/>
    <path id="Path_634" data-name="Path 634" d="M963.414,50.23l41-49.79H922.4Z" transform="translate(-22.849)" fill="#1d1d1d"/>
    <path id="Path_635" data-name="Path 635" d="M1046.964,50.23,1087.978.44H1005.96Z" transform="translate(-24.831)" fill="#1d1d1d"/>
    <path id="Path_636" data-name="Path 636" d="M1130.964,50.23,1171.977.44H1089.96Z" transform="translate(-26.823)" fill="#1d1d1d"/>
    <path id="Path_637" data-name="Path 637" d="M1214.523,50.23l41-49.79H1173.51Z" transform="translate(-28.805)" fill="#1d1d1d"/>
    <path id="Path_638" data-name="Path 638" d="M1298.524,50.23l41-49.79H1257.51Z" transform="translate(-30.797)" fill="#1d1d1d"/>
    <path id="Path_639" data-name="Path 639" d="M1382.074,50.23,1423.088.44H1341.07Z" transform="translate(-32.779)" fill="#1d1d1d"/>
    <path id="Path_640" data-name="Path 640" d="M1466.073,50.23,1507.087.44H1425.07Z" transform="translate(-34.771)" fill="#1d1d1d"/>
    <path id="Path_641" data-name="Path 641" d="M1549.634,50.23l41-49.79H1508.62Z" transform="translate(-36.752)" fill="#1d1d1d"/>
    <path id="Path_642" data-name="Path 642" d="M1633.634,50.23l41-49.79H1592.62Z" transform="translate(-38.745)" fill="#1d1d1d"/>
    <path id="Path_643" data-name="Path 643" d="M1717.184,50.23,1758.2.44H1676.18Z" transform="translate(-40.726)" fill="#1d1d1d"/>
    <path id="Path_644" data-name="Path 644" d="M1801.184,50.23,1842.2.44H1760.18Z" transform="translate(-42.719)" fill="#1d1d1d"/>
    <path id="Path_645" data-name="Path 645" d="M167.114,101.34l41.014-49.79H126.11Z" transform="translate(-3.963 -1.212)" fill="#1d1d1d"/>
    <path id="Path_646" data-name="Path 646" d="M83.114,101.34l41.014-49.79H42.11Z" transform="translate(-1.971 -1.212)" fill="#1d1d1d"/>
    <path id="Path_647" data-name="Path 647" d="M251.114,101.34l41.014-49.79H210.11Z" transform="translate(-5.956 -1.212)" fill="#1d1d1d"/>
    <path id="Path_648" data-name="Path 648" d="M334.964,101.34l41.014-49.79H293.96Z" transform="translate(-7.944 -1.212)" fill="#1d1d1d"/>
    <path id="Path_649" data-name="Path 649" d="M502.524,101.34l41-49.79H461.51Z" transform="translate(-11.918 -1.212)" fill="#1d1d1d"/>
    <path id="Path_650" data-name="Path 650" d="M586.523,101.34l41-49.79H545.51Z" transform="translate(-13.91 -1.212)" fill="#1d1d1d"/>
    <path id="Path_651" data-name="Path 651" d="M670.074,101.34l41.014-49.79H629.07Z" transform="translate(-15.892 -1.212)" fill="#1d1d1d"/>
    <path id="Path_652" data-name="Path 652" d="M754.074,101.34l41.014-49.79H713.07Z" transform="translate(-17.884 -1.212)" fill="#1d1d1d"/>
    <path id="Path_653" data-name="Path 653" d="M921.634,101.34l41-49.79H880.62Z" transform="translate(-21.858 -1.212)" fill="#1d1d1d"/>
    <path id="Path_654" data-name="Path 654" d="M1005.184,101.34,1046.2,51.55H964.18Z" transform="translate(-23.84 -1.212)" fill="#1d1d1d"/>
    <path id="Path_655" data-name="Path 655" d="M1089.184,101.34,1130.2,51.55H1048.18Z" transform="translate(-25.832 -1.212)" fill="#1d1d1d"/>
    <path id="Path_656" data-name="Path 656" d="M1172.744,101.34l41-49.79H1131.73Z" transform="translate(-27.814 -1.212)" fill="#1d1d1d"/>
    <path id="Path_657" data-name="Path 657" d="M1256.743,101.34l41-49.79H1215.73Z" transform="translate(-29.806 -1.212)" fill="#1d1d1d"/>
    <path id="Path_658" data-name="Path 658" d="M1507.853,101.34l41-49.79H1466.84Z" transform="translate(-35.762 -1.212)" fill="#1d1d1d"/>
    <path id="Path_659" data-name="Path 659" d="M1591.854,101.34l41-49.79H1550.84Z" transform="translate(-37.754 -1.212)" fill="#1d1d1d"/>
    <path id="Path_660" data-name="Path 660" d="M1675.4,101.34l41.014-49.79H1634.4Z" transform="translate(-39.736 -1.212)" fill="#1d1d1d"/>
    <path id="Path_661" data-name="Path 661" d="M1842.964,101.34l41.013-49.79H1801.95Z" transform="translate(-43.709 -1.212)" fill="#1d1d1d"/>
    <path id="Path_675" data-name="Path 675" d="M1884.974,50.23l41-49.79H1843.96Z" transform="translate(-44.706)" fill="#1d1d1d"/>
    <path id="Path_676" data-name="Path 676" d="M1926.744,101.34l41.013-49.79H1885.74Z" transform="translate(-45.697 -1.212)" fill="#1d1d1d"/>
    <path id="Path_699" data-name="Path 699" d="M41.714,50.23l41-49.79H.7Z" transform="translate(-0.989)" fill="#1d1d1d"/>
  </g>
</svg>
